<?xml version="1.0" encoding="UTF-8"?>
<svg id="Layer_1" data-name="Layer 1" xmlns="http://www.w3.org/2000/svg" viewBox="0 0 1783.64 973.94">
  <defs>
    <style>
      .cls-1 {
        fill: #0e8ea8;
      }
    </style>
  </defs>
  <polygon class="cls-1" points="197.64 74.11 197.64 52.13 9 52.13 197.64 74.11"/>
  <polygon class="cls-1" points="197.64 125.11 197.64 103.13 9 103.13 197.64 125.11"/>
  <polygon class="cls-1" points="197.64 176.11 197.64 154.13 9 154.13 197.64 176.11"/>
  <polygon class="cls-1" points="197.64 227.11 197.64 205.13 9 205.13 197.64 227.11"/>
  <polygon class="cls-1" points="197.64 278.11 197.64 256.13 9 256.13 197.64 278.11"/>
  <polygon class="cls-1" points="197.64 329.11 197.64 307.13 9 307.13 197.64 329.11"/>
  <polygon class="cls-1" points="197.64 380.11 197.64 358.13 9 358.13 197.64 380.11"/>
  <polygon class="cls-1" points="559.14 262.41 717.64 279.13 720.64 256.13 561.17 256.13 575.69 211.21 726.64 227.13 729.64 204.13 577.98 204.13 591.62 161.94 735.64 177.13 738.64 154.13 594.15 154.13 608.18 110.74 744.64 125.13 747.64 102.13 610.96 102.13 624.11 61.47 753.64 75.13 756.64 52.13 627.13 52.13 535.64 52.13 523.21 52.13 466.64 237.13 461.64 237.13 461.43 52.13 382.53 52.13 314.64 236.13 309.64 236.13 319.98 52.13 215.81 52.13 215.81 381.13 336.06 381.13 379.64 261.13 388.64 261.13 388.64 382.2 520.4 382.2 526.65 362.88 699.64 381.13 702.64 358.13 528.19 358.13 543.21 311.68 708.64 329.13 711.64 306.13 545 306.13 559.14 262.41"/>
  <path class="cls-1" d="m1017.81,282.19c1.16-2.7,2.15-5.48,2.95-8.31l8.54-30.29c.56-1.97,1.03-3.97,1.4-5.99l6.01-32.27,200.93,21.8,4-22h-204.89l.77-4.15c.41-2.23.71-4.48.9-6.74l2.33-27.89c.26-3.14.3-6.3.12-9.45l-1.32-23.1c-.27-4.77-1.05-9.49-2.32-14.09l-2.41-8.76c-.18-.64-.36-1.28-.56-1.92l148.38,16.1,4-22h-154.5c-1-2.43-2.14-4.79-3.43-7.09l-.65-1.17c-1.94-3.49-4.19-6.79-6.72-9.89h-.01c-3.45-4.22-7.39-8-11.74-11.26-3.62-2.72-7.51-5.07-11.6-7l-7.13-3.38c-3.8-1.8-7.77-3.25-11.85-4.31l-12.66-3.3c-2.8-.73-5.65-1.28-8.53-1.65l-9.76-1.24c-3.74-.47-7.5-.71-11.26-.71h-162.86l-57.19,330.06h165.15c1.22,0,2.43-.03,3.65-.09l5.63-.31c1.97-.11,3.94-.3,5.9-.58l7.2-1.03c2.57-.37,5.12-.88,7.63-1.54l12.55-3.31c1.79-.47,3.55-1.01,5.29-1.62l10.43-3.68c2.64-.93,5.22-2.03,7.72-3.28l8.43-4.21c3.86-1.94,7.54-4.24,10.96-6.87l3.45-2.65c2.93-2.26,5.67-4.75,8.19-7.45l7.73-8.29c1.65-1.76,3.21-3.62,4.66-5.55l4.15-5.54c1.78-2.37,3.4-4.86,4.85-7.44l5.83-10.38c1.16-2.07,2.22-4.21,3.16-6.39l8.5-19.79Zm-80.47-128.51c0,7.62-.68,15.22-2.05,22.72l-18.1,99.48c-.69,3.79-2.19,7.38-4.4,10.54-2.41,3.44-5.48,6.36-9.04,8.58-1.72,1.08-3.64,1.79-5.65,2.11l-.91.14c-3.64.57-7.31.86-11,.86h-56.59l29.28-161.05.26-1.43h55.03c3.18,0,6.34.43,9.41,1.29,1.7.47,3.36,1.11,4.94,1.9,2.38,1.19,4.42,2.95,5.94,5.13,1.88,2.68,2.88,5.87,2.88,9.14v.59Z"/>
  <polygon class="cls-1" points="1194.64 52.13 987.89 52.13 1190.64 74.13 1194.64 52.13"/>
  <polygon class="cls-1" points="1246.64 176.13 1250.64 154.13 1043.89 154.13 1246.64 176.13"/>
  <polygon class="cls-1" points="1228.64 278.13 1232.64 256.13 1025.89 256.13 1228.64 278.13"/>
  <polygon class="cls-1" points="1219.64 329.13 1223.64 307.13 1016.89 307.13 1219.64 329.13"/>
  <polygon class="cls-1" points="1210.64 380.13 1214.64 358.13 1007.89 358.13 1210.64 380.13"/>
  <polygon class="cls-1" points="1198.28 135.63 1270.79 135.63 1227.89 382.2 1328.49 382.2 1369.85 135.63 1444.4 135.63 1460.23 52.13 1214.64 52.13 1198.28 135.63"/>
  <rect class="cls-1" x="1644.14" y="191.51" width="10" height="21.24" transform="translate(28.09 566.42) rotate(-19.65)"/>
  <path class="cls-1" d="m1653.11,214.53c-6.7,2.57-10.05,10.09-7.48,16.8l5.73,14.94c2.57,6.7,10.09,10.05,16.8,7.48h0c6.7-2.57,10.05-10.09,7.48-16.8l-5.73-14.94c-2.57-6.7-10.09-10.05-16.8-7.48h0Z"/>
  <path class="cls-1" d="m1777.88,323.23l-36.25-99.61c-14.79-40.64-58.93-62.29-99.81-49.75-3.63-32.02-26.99-49.7-49.62-66.82-15.95-12.07-31.02-23.47-39.49-39.49-11.31-29.61,7.7-49.52,29.32-58.3l-3.76-9.27c-15.34,6.23-26.84,15.97-33.27,28.16-6.89,13.06-7.41,28.03-1.5,43.28l.23.51c9.48,18.14,26.24,30.82,42.45,43.08,22.52,17.04,43.79,33.14,45.95,62.53-17.66,7.96-31.74,21.8-40.01,39.54-9.14,19.61-10.1,41.6-2.7,61.94l36.25,99.61c11.96,32.86,43.1,53.3,76.2,53.3,9.18,0,18.51-1.57,27.62-4.89,41.97-15.28,63.69-61.85,48.41-103.82Zm-176.72-101.91c8.01-17.19,22.24-30.23,40.06-36.71,7.99-2.91,16.17-4.29,24.21-4.29,29.01,0,56.31,17.92,66.79,46.72l4.03,11.07-61.08,21.94-1.87-5.52-9.47,3.21,1.93,5.69-63.15,22.68-3.82-10.5c-6.49-17.82-5.64-37.1,2.37-54.29Zm124.88,196.33c-36.79,13.39-77.61-5.65-91-42.44l-29.01-79.71,133.64-48,28.81,79.14c13.39,36.79-5.65,77.61-42.44,91Z"/>
</svg>